HIERARCHY
ROOT Hips
{
	OFFSET 0.000000 0.000000 0.000000
	CHANNELS 6 Xposition Yposition Zposition Yrotation Xrotation Zrotation
	JOINT Chest
	{
		OFFSET 0.000000 -0.009281 11.569106
		CHANNELS 3 Yrotation Xrotation Zrotation
		JOINT Chest2
		{
			OFFSET -0.000000 0.016865 9.269641
			CHANNELS 3 Yrotation Xrotation Zrotation
			JOINT Chest3
			{
				OFFSET -0.000000 0.000001 8.374491
				CHANNELS 3 Yrotation Xrotation Zrotation
				JOINT Chest4
				{
					OFFSET -0.000000 0.000001 8.374493
					CHANNELS 3 Yrotation Xrotation Zrotation
					JOINT Neck
					{
						OFFSET -0.000000 0.000002 12.152554
						CHANNELS 3 Yrotation Xrotation Zrotation
						JOINT Head
						{
							OFFSET -0.000000 0.040101 7.802319
							CHANNELS 3 Yrotation Xrotation Zrotation
							End Site
							{
								OFFSET -0.000000 0.020947 14.853096
							}
						}
					}
					JOINT RightCollar
					{
						OFFSET 2.894404 0.000001 6.791374
						CHANNELS 3 Yrotation Xrotation Zrotation
						JOINT RightShoulder
						{
							OFFSET 13.574684 0.000001 0.000000
							CHANNELS 3 Yrotation Xrotation Zrotation
							JOINT RightElbow
							{
								OFFSET 23.923903 0.000002 0.000000
								CHANNELS 3 Yrotation Xrotation Zrotation
								JOINT RightWrist
								{
									OFFSET 19.846718 0.012767 0.000000
									CHANNELS 3 Yrotation Xrotation Zrotation
									End Site
									{
										OFFSET 14.973145 0.000001 0.000000
									}
								}
							}
						}
					}
					JOINT LeftCollar
					{
						OFFSET -2.894404 0.000001 6.791374
						CHANNELS 3 Yrotation Xrotation Zrotation
						JOINT LeftShoulder
						{
							OFFSET -13.574684 -0.000001 0.000000
							CHANNELS 3 Yrotation Xrotation Zrotation
							JOINT LeftElbow
							{
								OFFSET -23.923903 -0.000002 0.000000
								CHANNELS 3 Yrotation Xrotation Zrotation
								JOINT LeftWrist
								{
									OFFSET -19.846718 0.012763 0.000000
									CHANNELS 3 Yrotation Xrotation Zrotation
									End Site
									{
										OFFSET -14.973145 -0.000001 0.000000
									}
								}
							}
						}
					}
				}
			}
		}
	}
	JOINT RightHip
	{
		OFFSET 9.469263 0.004643 0.045487
		CHANNELS 3 Yrotation Xrotation Zrotation
		JOINT RightKnee
		{
			OFFSET 0.000000 0.002661 -40.478676
			CHANNELS 3 Yrotation Xrotation Zrotation
			JOINT RightAnkle
			{
				OFFSET 0.000000 0.049106 -35.224068
				CHANNELS 3 Yrotation Xrotation Zrotation
				JOINT RightToe
				{
					OFFSET -0.000001 12.539529 -6.151390
					CHANNELS 3 Yrotation Xrotation Zrotation
					End Site
					{
						OFFSET -0.000001 5.044994 -1.291870
					}
				}
			}
		}
	}
	JOINT LeftHip
	{
		OFFSET -9.469263 0.004641 0.045487
		CHANNELS 3 Yrotation Xrotation Zrotation
		JOINT LeftKnee
		{
			OFFSET 0.000000 0.002661 -40.478676
			CHANNELS 3 Yrotation Xrotation Zrotation
			JOINT LeftAnkle
			{
				OFFSET 0.000000 0.049106 -35.224068
				CHANNELS 3 Yrotation Xrotation Zrotation
				JOINT LeftToe
				{
					OFFSET -0.000001 12.539529 -6.151390
					CHANNELS 3 Yrotation Xrotation Zrotation
					End Site
					{
						OFFSET -0.000001 5.044994 -1.291870
					}
				}
			}
		}
	}
}
MOTION
Frames: 11
Frame Time: 0.016667
10.412801 7.765677 83.134285 -5.342784 -2.514868 -110.568284 0.166127 -0.870963 0.967928 0.067885 -0.385905 0.425274 0.067885 -0.385905 0.425273 0.051182 -0.289381 0.318997 0.240777 -20.791280 -2.321650 -0.249099 -2.448680 -4.147234 11.435220 1.461744 -1.631625 60.698559 6.513373 -3.456630 15.586198 -7.405794 8.358550 -65.765535 38.087054 12.334199 -10.233630 2.872093 -1.327469 -63.591138 5.940721 6.068045 -11.577086 -10.534824 -4.737593 59.726002 35.263611 -10.464374 -0.767811 -4.151336 -1.710779 1.914797 -7.604310 -5.335339 -1.341945 4.340171 1.395161 0.006739 -0.054134 -0.004926 -0.825584 -5.970178 -0.394332 -0.270922 -5.280991 2.904722 2.113194 5.592468 2.261889 -0.015887 0.000850 0.005385 
10.408228 7.747870 83.137863 -5.352541 -2.486880 -110.513301 0.139698 -0.913098 0.985961 0.056217 -0.404763 0.431956 0.056217 -0.404763 0.431955 0.042449 -0.303532 0.324005 0.268144 -20.552543 -2.440414 -0.241782 -2.007291 -4.358607 11.462183 1.536973 -1.517484 59.397292 3.437532 -4.004162 17.679837 -8.882750 8.816671 -64.401942 37.102329 10.695581 -10.242657 2.953215 -1.736001 -62.083872 4.618858 6.719345 -13.603931 -12.958138 -4.868841 58.664010 35.034748 -9.496927 -0.783455 -4.193131 -1.678693 1.932560 -7.532806 -5.370693 -1.366503 4.334000 1.356786 0.007715 -0.062426 -0.004076 -0.845204 -6.008420 -0.335604 -0.240928 -5.188198 2.863308 2.090593 5.537486 2.199180 -0.016662 0.000815 0.005401 
10.401858 7.732217 83.141434 -5.366548 -2.458944 -110.457929 0.109616 -0.964314 1.014035 0.043408 -0.427881 0.443199 0.043409 -0.427882 0.443201 0.032866 -0.320880 0.332430 0.295265 -20.306473 -2.558988 -0.235770 -1.552382 -4.570195 11.527964 1.479662 -1.332677 58.082276 0.905191 -4.458635 19.912633 -10.113572 9.515536 -63.121302 36.215688 9.175890 -10.287831 3.028532 -2.174379 -60.566757 3.088767 7.301936 -15.806024 -14.786683 -5.142495 57.556823 34.935198 -8.798419 -0.794463 -4.239958 -1.671926 1.935381 -7.456109 -5.370574 -1.384900 4.323498 1.305916 0.007097 -0.069717 -0.003909 -0.873797 -6.048594 -0.274555 -0.202254 -5.095963 2.833765 2.068053 5.479495 2.133633 -0.019325 0.002070 0.005071 
10.393577 7.716722 83.145393 -5.382687 -2.431653 -110.403622 0.070420 -1.018951 1.055320 0.026065 -0.452501 0.460481 0.026065 -0.452502 0.460486 0.019889 -0.339357 0.345382 0.333200 -20.060308 -2.675371 -0.210101 -1.096960 -4.774861 11.599840 1.406862 -1.206191 56.648110 -1.037273 -4.758968 22.329990 -11.362295 10.193297 -61.775243 35.350412 7.781924 -10.325083 3.010837 -2.668603 -58.966314 1.463107 7.793900 -18.170024 -16.191016 -5.563155 56.515065 35.004597 -8.188307 -0.799046 -4.294217 -1.684182 1.920783 -7.365083 -5.347534 -1.398215 4.304751 1.258200 0.008357 -0.077095 -0.003046 -0.903403 -6.088902 -0.204355 -0.157546 -5.004422 2.787684 2.042826 5.418246 2.075876 -0.022503 0.004018 0.004320 
10.383279 7.700057 83.149879 -5.401758 -2.403673 -110.351350 0.030190 -1.068637 1.094384 0.007490 -0.475011 0.476506 0.007490 -0.475011 0.476509 0.005988 -0.356252 0.357386 0.371931 -19.822913 -2.779012 -0.179395 -0.657503 -4.956188 11.635226 1.466396 -1.188127 55.166120 -2.702229 -5.053956 24.865777 -12.534131 10.916126 -60.088739 34.361944 6.591459 -10.335435 2.954343 -3.147050 -57.422698 -0.155221 8.158226 -20.537899 -17.334334 -6.015147 55.369929 35.004450 -7.753708 -0.804045 -4.353429 -1.722465 1.906478 -7.267907 -5.326937 -1.416991 4.284401 1.234004 0.011272 -0.084269 -0.002018 -0.928949 -6.132181 -0.141577 -0.123094 -4.910257 2.736040 2.021138 5.352986 2.024417 -0.024000 0.006964 0.004706 
10.372797 7.684223 83.154510 -5.413424 -2.370772 -110.296709 -0.006761 -1.108643 1.123007 -0.009250 -0.492947 0.488565 -0.009250 -0.492948 0.488568 -0.006543 -0.369719 0.366415 0.405212 -19.597560 -2.862852 -0.152595 -0.240135 -5.103088 11.661729 1.562185 -1.162166 53.584098 -4.017796 -5.435937 27.479453 -13.756428 11.813518 -58.135674 33.240564 5.420755 -10.332494 2.910937 -3.582970 -55.936295 -1.635698 8.487915 -22.775001 -18.402471 -6.541740 53.669987 34.855787 -7.423471 -0.809457 -4.410175 -1.771469 1.886551 -7.159975 -5.315588 -1.428416 4.261879 1.217772 0.011343 -0.092132 -0.001998 -0.956563 -6.170550 -0.096860 -0.088813 -4.806171 2.682042 1.998445 5.280141 1.986099 -0.023602 0.010068 0.005276 
10.366630 7.669568 83.158928 -5.418641 -2.339781 -110.243570 -0.045372 -1.155536 1.148543 -0.025822 -0.513269 0.499497 -0.025822 -0.513269 0.499496 -0.018947 -0.384974 0.374596 0.438346 -19.373454 -2.930152 -0.121237 0.175332 -5.219948 11.647258 1.648810 -1.164271 51.954408 -4.907891 -5.798712 30.153417 -15.073111 12.799557 -56.180997 31.886236 4.140325 -10.312128 2.937527 -4.024943 -54.354365 -2.719839 8.894754 -25.084227 -19.688119 -7.103923 51.746183 34.489095 -7.135460 -0.816368 -4.477695 -1.821193 1.874945 -7.023940 -5.316007 -1.437182 4.230781 1.211830 0.007185 -0.100785 -0.002675 -0.982191 -6.212478 -0.051785 -0.053662 -4.689070 2.621613 1.975878 5.204193 1.946320 -0.022011 0.011615 0.005717 
10.365919 7.653828 83.163376 -5.419771 -2.312681 -110.197787 -0.089020 -1.212390 1.176865 -0.043965 -0.538106 0.511924 -0.043965 -0.538107 0.511926 -0.032522 -0.403617 0.383905 0.476570 -19.151823 -2.983171 -0.076266 0.586798 -5.309159 11.586365 1.721949 -1.239941 50.286001 -5.520335 -6.057851 32.877894 -16.321400 13.781018 -54.092110 30.257181 2.920059 -10.218018 2.914802 -4.367927 -52.621765 -3.360655 9.173187 -27.565129 -21.276736 -7.570840 49.764570 34.043374 -6.854318 -0.818277 -4.557277 -1.865104 1.860334 -6.864299 -5.319862 -1.436815 4.192321 1.210718 -0.001430 -0.108775 -0.002421 -1.005443 -6.264331 -0.009239 -0.017973 -4.556429 2.571492 1.952201 5.125087 1.909604 -0.019537 0.012871 0.005445 
10.367508 7.638008 83.167686 -5.420365 -2.288762 -110.165590 -0.144451 -1.281641 1.220823 -0.066844 -0.569347 0.531138 -0.066844 -0.569347 0.531137 -0.049639 -0.427068 0.398287 0.530062 -18.933023 -3.031795 -0.002028 0.993745 -5.385431 11.501121 1.737187 -1.389362 48.576462 -5.966611 -6.119501 35.585456 -17.219141 14.790597 -51.402009 28.564488 1.886923 -10.046843 2.882127 -4.603284 -50.744399 -3.731079 9.299846 -30.209165 -23.013364 -7.989697 47.907848 33.562785 -6.415596 -0.821906 -4.636827 -1.877019 1.854044 -6.704456 -5.334613 -1.434381 4.155202 1.208619 -0.012191 -0.115487 -0.001494 -1.025145 -6.324722 0.025694 0.012294 -4.412733 2.538212 1.928757 5.042762 1.874811 -0.016049 0.014145 0.004868 
10.367035 7.624384 83.171692 -5.418867 -2.263309 -110.155324 -0.202516 -1.366478 1.272764 -0.091517 -0.608102 0.552666 -0.091517 -0.608101 0.552665 -0.068087 -0.456159 0.414402 0.592483 -18.711177 -3.069721 0.091806 1.406990 -5.439183 11.315058 1.706345 -1.613540 47.022106 -6.255898 -6.104866 38.048843 -17.869563 15.817856 -47.588219 26.969912 1.192476 -9.795617 2.849496 -4.760437 -48.834729 -3.934577 9.283606 -32.855269 -24.613821 -8.431743 45.874607 32.872276 -6.001385 -0.829991 -4.702887 -1.841530 1.853329 -6.555558 -5.367934 -1.427995 4.116225 1.189590 -0.025077 -0.118027 -0.001477 -1.045078 -6.385533 0.059575 0.032766 -4.263248 2.526339 1.907243 4.955357 1.843026 -0.010662 0.017347 0.005038 
10.362551 7.613810 83.175728 -5.419381 -2.236359 -110.159675 -0.255616 -1.478901 1.324804 -0.114995 -0.658897 0.574146 -0.114995 -0.658898 0.574147 -0.085626 -0.494282 0.430482 0.657690 -18.479915 -3.101457 0.192408 1.838024 -5.480700 11.069506 1.900847 -1.805836 45.454820 -6.549285 -6.253944 40.255735 -18.539589 16.824745 -42.394110 25.599419 0.814083 -9.540687 3.011023 -4.884613 -47.013951 -4.166407 9.355617 -35.189449 -25.974323 -9.000642 42.967928 31.979677 -5.919281 -0.845141 -4.756975 -1.783302 1.856643 -6.422283 -5.402765 -1.422017 4.077587 1.166572 -0.035279 -0.117986 -0.001267 -1.066696 -6.442726 0.092354 0.050417 -4.119047 2.527922 1.881513 4.867453 1.794928 -0.003252 0.020942 0.005171 
